# xmcd
#
# Track frame offsets:
#	150
#	1422
#	24455
#	45911
#	60039
#	61460
#	79460
#	80965
#	101660
#	116901
#	136166
#	137370
#	155818
#	171230
#	180740
#	183337
#	196017
#	197734
#	215788
#	218545
#	224206
#
# Disc length: 3231 seconds
#
# Revision: 0
# Processed by: cddbd v1.5.1PL2 Copyright (c) Steve Scherf et al.
# Submitted via: EasyCDDAExtractor 8.1.2.3
#
DISCID=330c9d15
DTITLE=Various Artist - Ghost dog(the way of the samurai)
DYEAR=2000
DGENRE=Rap
TTITLE0=rza - ghost dog - 01. samurai code quote #1
TTITLE1=Sunz of Man ft. 12 O'Clock, Bl - Strange Eyes
TTITLE2=North Star ft. RZA - 4 Sho Sho
TTITLE3=Black Knights - Zip Code
TTITLE4=rza - ghost dog - 05. samurai code quote #2
TTITLE5=Kool G Rap ft. RZA - Cakes
TTITLE6=rza - ghost dog - 07. samurai code quote #3
TTITLE7=Suga Bang Bang - Don't Test - Wu Stallion
TTITLE8=Tekitah ft. Ghostface Killah - Walking Thru Darkness
TTITLE9=Masta Killah and Superb - The Man
TTITLE10=rza - ghost dog
TTITLE11=Royal Fam and La The Darkman - Walk the Dogs
TTITLE12=Melodie and 12 O'Clock - Stay with me
TTITLE13=Jeru and Afu-Ra - East New York Stamp
TTITLE14=rza - ghost dog - 15. samurai code quote #5
TTITLE15=Wu-Tang Clan - Fast Shadow
TTITLE16=rza - ghost dog - 17. samurai code quote #6
TTITLE17=RZA - Samurai Showdown
TTITLE18=rza - ghost dog - 19. samurai code final quote #7
TTITLE19=RZA - Flying Birds (hidden bonus ins
TTITLE20=RZA - Ninjastep (hidden bonus instru
EXTD=
EXTT0=
EXTT1=
EXTT2=
EXTT3=
EXTT4=
EXTT5=
EXTT6=
EXTT7=
EXTT8=
EXTT9=
EXTT10=
EXTT11=
EXTT12=
EXTT13=
EXTT14=
EXTT15=
EXTT16=
EXTT17=
EXTT18=
EXTT19=
EXTT20=
PLAYORDER=
